<?xml version="1.0" encoding="UTF-8"?>
<!DOCTYPE svg PUBLIC "-//W3C//DTD SVG 1.1//EN" "http://www.w3.org/Graphics/SVG/1.1/DTD/svg11.dtd">
<!-- Creator: CorelDRAW 2020 (64-Bit) -->
<svg xmlns="http://www.w3.org/2000/svg" xml:space="preserve" width="21.6746mm" height="21.6746mm" version="1.1" style="shape-rendering:geometricPrecision; text-rendering:geometricPrecision; image-rendering:optimizeQuality; fill-rule:evenodd; clip-rule:evenodd"
viewBox="0 0 2167.46 2167.46"
 xmlns:xlink="http://www.w3.org/1999/xlink"
 xmlns:xodm="http://www.corel.com/coreldraw/odm/2003">
 <defs>
  <style type="text/css">
   <![CDATA[
    .fil0 {fill:#623285}
    .fil1 {fill:white;fill-rule:nonzero}
   ]]>
  </style>
 </defs>
 <g id="Layer_x0020_1">
  <metadata id="CorelCorpID_0Corel-Layer"/>
  <g id="_2076682145888">
   <rect class="fil0" width="2167.46" height="2167.46"/>
   <g>
    <path class="fil1" d="M523.5 645.8l90.25 -287.74 2.63 0 83.72 287.74 -176.6 0zm-393.82 333.7l289.12 0 41.88 -133.53 296.98 0 39.28 133.53 298.27 0 -340.18 -934.25 -281.26 0 -344.09 934.25zm1723.13 0l181.83 0 0 -514.26 -382 0 0 200.18 126.86 0c-4.98,23.1 -15.26,42.4 -30.31,57.58 -14.78,15.26 -32.91,26.82 -53.62,34.4 -20.9,7.68 -42.53,11.37 -65.18,11.37 -34.88,-0.21 -64.79,-5.85 -89.17,-16.53 -24.66,-10.95 -44.95,-25.14 -60.68,-43.01 -15.85,-17.6 -28.29,-37.3 -37.3,-58.67 -8.67,-21.11 -14.99,-42.46 -18.48,-63.83 -3.48,-21.37 -5.23,-40.8 -5.04,-58.67 -0.19,-10.82 0,-25.07 0.41,-42.53 0.46,-17.2 2.21,-36.16 5.24,-56.52 3.09,-20.49 8.33,-40.72 15.72,-61.01 7.65,-20.29 18.34,-39.05 32.27,-55.85 13.96,-16.8 32.3,-30.3 54.76,-40.51 22.23,-10.21 49.92,-15.45 82.65,-15.72 22.84,0.27 44.02,5.24 63.24,15.11 19.14,9.75 35.33,23.46 47.96,40.93 12.84,17.39 21.11,37.56 24.88,60.4l276.04 0c-14.19,-73.5 -39.92,-136.27 -77.22,-188.21 -37.49,-52.08 -85.87,-91.79 -145.01,-119.47 -59.26,-27.49 -128.61,-41.47 -208.24,-41.68 -35.35,0 -71.1,3.96 -107.24,12.23 -36.23,8.27 -71.37,20.9 -105.77,37.98 -34.27,16.99 -66.33,38.97 -96.15,65.59 -29.91,26.61 -56.04,58.45 -78.79,95.27 -22.65,36.96 -40.28,79.22 -53.22,126.94 -12.63,47.77 -19.1,101.2 -19.33,160.46 0,53.43 6.7,104.02 19.83,152 13.27,47.99 32.44,91.8 57.77,131.72 25.07,39.91 56.06,74.58 92.21,104.08 36.21,29.16 77.68,51.89 123.91,68 46.23,16.14 97.03,24.19 152.4,24.4 34.21,0 67.61,-3.83 100.06,-12.23 32.33,-8.26 62.63,-20.89 90.98,-38.38 28.09,-17.39 52.95,-39.64 74.53,-67.12l9.2 95.56z"/>
    <path class="fil1" d="M192.09 1406.41l0 -115.85 43.06 0c19.78,0 35.01,3.88 45.81,11.62 10.77,7.79 16.14,22.17 16.14,43.33 0,18.36 -4.82,33.07 -14.48,44.15 -9.69,11.17 -23.73,16.75 -42,16.75l-48.53 0zm0 176.17l0 -133.11 57.1 0c17.96,0 32.54,5.78 43.6,17.34 11.18,11.43 16.77,27.41 16.77,47.85 0,45.29 -18.92,67.92 -56.6,67.92l-60.87 0zm-61.43 46.31l121.77 0c36.27,0 65.13,-9.54 86.5,-28.55 21.33,-19.03 32.04,-44.56 32.04,-76.48 0,-30.92 -6,-53.97 -17.81,-69.2 -11.83,-15.34 -28.92,-24.94 -51.22,-28.84l0 -1.01c37.77,-11.96 56.59,-41.05 56.59,-87.36 0,-31.98 -9.47,-55.43 -28.56,-70.55 -19.01,-15.13 -43.94,-22.65 -74.87,-22.65l-124.44 0 0 384.64zm302.25 0l212.23 0 0 -51.74 -150.86 0 0 -122.7 137.91 0 0 -51.81 -137.91 0 0 -106.58 146.52 0 0 -51.81 -207.89 0 0 384.64zm471.35 -119.07l0 9.2c0,14.72 1.79,28.9 5.44,42.53 3.55,13.64 9.64,26.16 18.27,37.43 8.59,11.3 20.61,20.37 36.08,27.3 15.45,6.7 34.47,10.21 57.1,10.21 40.27,0 71.51,-9.49 93.74,-28.36 22.27,-18.82 33.41,-48.04 33.41,-87.49 0,-26.27 -6.15,-47.37 -18.61,-63.3 -12.36,-16 -32.17,-28.84 -59.47,-38.57l-41.52 -15.05c-20.82,-7.94 -35.62,-16.74 -44.42,-26.42 -8.8,-9.6 -13.18,-22.57 -13.18,-38.76 0,-19.03 4.91,-33.07 14.78,-42 9.9,-9.01 22.19,-13.51 36.87,-13.51 18.73,0 32.35,4.76 40.96,14.31 8.66,9.46 12.97,23.26 12.97,41.2l0 8.06 61.41 0 0 -8.54c0,-12.3 -1.2,-24 -3.51,-35.08 -2.34,-11.15 -7.33,-21.83 -14.83,-32.04 -7.53,-10.29 -18.69,-18.48 -33.39,-24.8 -14.73,-6.25 -33.72,-9.41 -57.15,-9.41 -36.59,0 -65.7,9.46 -87.2,28.55 -21.56,19.03 -32.31,45.77 -32.31,80.23 0,27.3 6.23,49.07 18.8,65.26 12.58,16.13 33.07,29.56 61.41,40.32l42.01 14.65c18.34,5.3 32.05,13.24 41.23,23.64 9.17,10.42 13.74,25.28 13.74,44.69 0,15.46 -5.13,28.63 -15.34,39.58 -10.26,10.95 -24.51,16.48 -42.85,16.48 -42,0 -63.03,-23.53 -63.03,-70.63l0 -9.68 -61.41 0zm301.7 -265.57l0 270.94c0,42.74 9.98,73.66 30.17,92.67 20.1,19.01 49.33,28.63 87.77,28.63 38.44,0 67.66,-9.62 87.57,-28.63 19.94,-19.01 29.88,-49.93 29.88,-92.67l0 -270.94 -61.41 0 0 275.86c0,24.05 -4.63,41.71 -13.98,53.01 -9.33,11.35 -23.37,17.01 -42.06,17.01 -18.68,0 -32.72,-5.66 -42.26,-17.01 -9.55,-11.3 -14.25,-28.96 -14.25,-53.01l0 -275.86 -61.43 0zm307.03 384.64l61.42 0 0 -166.98 50.13 0c20.5,0 34.82,4.63 43.07,13.97 8.26,9.41 12.57,24.8 12.97,46.38 0.34,8.25 0.55,17.52 0.55,28.02 0.67,20.42 1.41,35.33 2.13,44.68 1.76,16.52 5.19,27.81 10.23,33.93l69.47 0 -12.63 -12.71c-3.43,-5.16 -5.31,-12.09 -5.63,-20.63 -0.4,-9.41 -1.09,-31.84 -2.16,-67.39l0 -10.82c-1.08,-26.21 -6.51,-45.43 -16.19,-57.58 -9.67,-12.23 -24.4,-19.22 -44.15,-21.03l0 -1.08c20.42,-3.22 36.21,-13.38 47.37,-30.44 11.16,-17.07 16.73,-38.37 16.73,-63.83 0,-34.16 -9,-59.2 -26.94,-75.13 -17.94,-16 -41.47,-24 -70.55,-24l-135.82 0 0 384.64zm61.42 -213.36l0 -124.97 52.28 0c20.1,0 34.8,5.23 44.16,15.65 9.33,10.42 14.03,26.08 14.03,46.84 0,19.41 -5.37,34.67 -16.19,45.83 -10.76,11.09 -25.86,16.65 -45.22,16.65l-49.06 0zm240.84 213.36l212.21 0 0 -51.74 -150.8 0 0 -122.7 137.89 0 0 -51.81 -137.89 0 0 -106.58 146.5 0 0 -51.81 -207.91 0 0 384.64zm-1623.16 293.05l0 -115.85 43.06 0c19.78,0 35.01,3.83 45.81,11.57 10.77,7.71 16.14,22.17 16.14,43.41 0,18.26 -4.82,33.04 -14.48,44.21 -9.69,11.14 -23.73,16.66 -42,16.66l-48.53 0zm0 176.12l0 -133.05 57.1 0c17.96,0 32.54,5.77 43.6,17.2 11.18,11.49 16.77,27.49 16.77,47.98 0,45.22 -18.92,67.87 -56.6,67.87l-60.87 0zm-61.43 46.37l121.77 0c36.27,0 65.13,-9.55 86.5,-28.56 21.33,-19.08 32.04,-44.55 32.04,-76.53 0,-30.84 -6,-53.97 -17.81,-69.22 -11.83,-15.26 -28.92,-24.86 -51.22,-28.82l0 -1.09c37.77,-11.83 56.59,-40.91 56.59,-87.28 0,-31.92 -9.47,-55.45 -28.56,-70.55 -19.01,-15.07 -43.94,-22.65 -74.87,-22.65l-124.44 0 0 384.7zm302.25 0l212.23 0 0 -51.74 -150.86 0 0 -122.84 137.91 0 0 -51.74 -137.91 0 0 -106.65 146.52 0 0 -51.73 -207.89 0 0 384.7zm511.23 0l71.11 0 48.97 -289.9 1.09 0 49.58 289.9 71.11 0 76.47 -384.7 -60.84 0 -50.13 300.71 -1.05 0 -51.73 -300.71 -64.67 0 -50.59 299.02 -1.07 0 -50.69 -299.02 -61.92 0 74.36 384.7zm366.32 0l212.29 0 0 -51.74 -150.86 0 0 -122.84 137.89 0 0 -51.74 -137.89 0 0 -106.65 146.48 0 0 -51.73 -207.91 0 0 384.7zm265.03 0l210.12 0 0 -51.74 -148.71 0 0 -332.96 -61.41 0 0 384.7zm252.12 0l210.12 0 0 -51.74 -148.71 0 0 -332.96 -61.41 0 0 384.7z"/>
   </g>
  </g>
 </g>
</svg>
