<svg width="16" height="16" viewBox="0 0 16 16" fill="none" xmlns="http://www.w3.org/2000/svg">
<path d="M7.2055 15.6781L0.371131 8.84375C0.0406494 8.51677 0.0406494 7.98242 0.371131 7.65194L7.2055 0.821103C7.53245 0.490622 8.06683 0.490622 8.39728 0.821103L9.17775 1.60158C9.51524 1.93556 9.50823 2.48048 9.16367 2.80743L4.92736 6.84335H15.0313C15.4988 6.84335 15.875 7.21953 15.875 7.6871V8.81209C15.875 9.27966 15.4988 9.65584 15.0313 9.65584H4.92736L9.16367 13.6918C9.5047 14.0187 9.51173 14.5636 9.17775 14.8976L8.39728 15.6781C8.07033 16.0086 7.53595 16.0086 7.2055 15.6781Z" fill="#2F2483"/>
</svg>
