<svg width="69" height="69" viewBox="0 0 69 69" fill="none" xmlns="http://www.w3.org/2000/svg">
<path d="M34.4968 66.8602L0 32.6237L14.89 17.8586H54.1036L69 32.6175L34.4968 66.8602ZM3.4775 32.6237L34.4968 63.4152L65.5225 32.6237L53.0857 20.2996H15.908L3.4775 32.6237Z" fill="#191A1A"/>
<path d="M34.4967 69.0001L21.8828 31.4065H47.1042L34.4903 69.0001H34.4967ZM25.2908 33.8412L34.4967 61.2755L43.7026 33.8412H25.2971H25.2908Z" fill="#191A1A"/>
<path d="M25.7588 33.8412H1.73877V31.4002H21.4214L14.3463 19.7098L16.4518 18.4548L25.7588 33.8412Z" fill="#191A1A"/>
<path d="M47.9578 33.8412H21.0356L34.5031 17.1309L47.9642 33.8412H47.9578ZM26.1444 31.4002H42.8491L34.4967 21.0339L26.1444 31.4002Z" fill="#191A1A"/>
<path d="M23.4446 34.7511L14.3462 19.7099L16.4517 18.4549L23.7355 30.4904L33.5357 18.3169L35.4578 19.8417L23.4446 34.7511Z" fill="#191A1A"/>
<path d="M45.5488 34.7511L33.5356 19.8417L35.4578 18.3169L45.2643 30.4904L52.5418 18.4549L54.6473 19.7099L45.5488 34.7511Z" fill="#191A1A"/>
<path d="M67.2613 33.8412H43.2349L52.5419 18.4548L54.6474 19.7098L47.5786 31.4002H67.2613V33.8412Z" fill="#191A1A"/>
<path d="M35.73 0H33.2705V8.13241H35.73V0Z" fill="#191A1A"/>
<path d="M43.3366 1.49366L40.2021 9.00757L42.4746 9.9413L45.6091 2.42739L43.3366 1.49366Z" fill="#191A1A"/>
<path d="M52.0515 6.70408L46.2583 12.4556L47.9978 14.1813L53.791 8.42981L52.0515 6.70408Z" fill="#191A1A"/>
<path d="M25.6703 1.49703L23.3979 2.43115L26.5338 9.94452L28.8061 9.0104L25.6703 1.49703Z" fill="#191A1A"/>
<path d="M16.9533 6.7125L15.2139 8.43823L21.0026 14.1853L22.7421 12.4596L16.9533 6.7125Z" fill="#191A1A"/>
</svg>
