<svg width="16" height="16" viewBox="0 0 16 16" fill="none" xmlns="http://www.w3.org/2000/svg">
<path d="M8.7945 15.6781L15.6289 8.84375C15.9594 8.51677 15.9594 7.98242 15.6289 7.65194L8.7945 0.821103C8.46755 0.490622 7.93317 0.490622 7.60272 0.821103L6.82225 1.60158C6.48476 1.93556 6.49177 2.48048 6.83633 2.80743L11.0726 6.84335H0.968748C0.501178 6.84335 0.125 7.21953 0.125 7.6871V8.81209C0.125 9.27966 0.501178 9.65584 0.968748 9.65584H11.0726L6.83633 13.6918C6.4953 14.0187 6.48827 14.5636 6.82225 14.8976L7.60272 15.6781C7.92967 16.0086 8.46405 16.0086 8.7945 15.6781Z" fill="#2F2483"/>
</svg>
