<svg width="90" height="48" viewBox="0 0 90 48" fill="none" xmlns="http://www.w3.org/2000/svg">
<path d="M45.0037 48C27.3862 48 10.7784 39.3278 0.573092 24.8117L0.00732422 24.0036L0.573092 23.1956C10.7712 8.67218 27.379 0 45.0037 0C62.6285 0 79.2291 8.67218 89.4344 23.1883L90.0002 23.9964L89.4344 24.8045C79.2291 39.3206 62.6213 47.9928 45.0037 47.9928V48ZM3.42341 23.9964C13.1489 37.286 28.618 45.1934 45.0037 45.1934C61.3895 45.1934 76.8586 37.286 86.5841 23.9964C76.8514 10.7067 61.3895 2.80655 45.0037 2.80655C28.618 2.80655 13.1489 10.7067 3.42341 23.9964Z" fill="#191A1A"/>
<path d="M45.0035 48C31.8619 48 21.1768 37.2355 21.1768 24.0036C21.1768 10.7717 31.8619 0 45.0035 0C58.145 0 68.8301 10.7645 68.8301 23.9964C68.8301 37.2283 58.145 47.9928 45.0035 47.9928V48ZM45.0035 2.80655C33.4016 2.80655 23.9626 12.3156 23.9626 24.0036C23.9626 35.6916 33.4016 45.2007 45.0035 45.2007C56.6053 45.2007 66.0443 35.6916 66.0443 24.0036C66.0443 12.3156 56.6053 2.80655 45.0035 2.80655Z" fill="#191A1A"/>
<path d="M44.9966 33.0726C40.0265 33.0726 35.9873 29.0034 35.9873 23.9964C35.9873 18.9893 40.0265 14.9202 44.9966 14.9202C49.9668 14.9202 54.0059 18.9893 54.0059 23.9964C54.0059 29.0034 49.9668 33.0726 44.9966 33.0726ZM44.9966 17.7267C41.5662 17.7267 38.7732 20.5405 38.7732 23.9964C38.7732 27.4523 41.5662 30.266 44.9966 30.266C48.427 30.266 51.2201 27.4523 51.2201 23.9964C51.2201 20.5405 48.427 17.7267 44.9966 17.7267Z" fill="#191A1A"/>
<path d="M41.1509 10.6273L40.3774 7.93622C41.8814 7.49612 43.4426 7.27246 45.0038 7.27246V10.079C43.7004 10.079 42.4042 10.2666 41.1509 10.6346V10.6273Z" fill="#191A1A"/>
<path d="M31.1745 24.0036H28.3887C28.3887 17.7844 31.7833 12.1136 37.2547 9.20605L38.551 11.6879C33.9962 14.1049 31.1674 18.8234 31.1674 24.0036H31.1745Z" fill="#191A1A"/>
</svg>
